<svg width="79" height="79" viewBox="0 0 79 79" fill="none" xmlns="http://www.w3.org/2000/svg">
<path d="M69.2939 45.8138C67.8577 48.8091 64.7872 50.8841 61.2222 50.8841V45.8138H17.7778V50.8841C14.2115 50.8841 11.1423 48.8091 9.70606 45.8138H5V73.7004H74V45.8138H69.2939Z" fill="#C7A17A"/>
<path fill-rule="evenodd" clip-rule="evenodd" d="M71.2119 40.5274H75.0268C77.1301 40.5274 78.8417 42.2321 78.8417 44.3269V74.7237C78.8417 76.8184 77.1301 78.5231 75.0268 78.5231H3.81553C1.71225 78.5231 0.000640869 76.8184 0.000640869 74.7237V44.3281C0.000640869 42.2334 1.71225 40.5287 3.81553 40.5287H7.63042V39.2622C7.63042 35.1398 10.2106 31.4391 13.9886 29.9029V25.8236C10.2106 24.2873 7.63042 20.5867 7.63042 16.4643V15.1978C3.4226 15.1978 0.000640869 11.7897 0.000640869 7.59889C0.000640869 3.4081 3.4226 0 7.63042 0H71.2119C75.4197 0 78.8417 3.4081 78.8417 7.59889C78.8417 11.7897 75.4197 15.1978 71.2119 15.1978V16.4643C71.2119 20.5867 68.6318 24.2886 64.8538 25.8236V29.9016C68.6318 31.4379 71.2119 35.1398 71.2119 39.2609V40.5274ZM62.3105 49.2877C65.9143 48.6823 68.6686 45.5528 68.6686 41.7939V39.2609C68.6686 36.5304 67.1554 34.0494 64.8538 32.7094V34.195C64.8538 34.7016 64.7495 35.1841 64.5676 35.6274C65.5366 36.5633 66.1254 37.8602 66.1254 39.2609V41.7939C66.1254 44.1508 64.5015 46.1367 62.3105 46.7002V49.2877ZM20.3467 15.1978V16.4643C20.3467 16.7593 20.2831 17.0456 20.1839 17.3179C19.5291 16.7923 18.7076 16.4643 17.8035 16.4643C16.8993 16.4643 16.0779 16.7923 15.423 17.3179C15.3238 17.0456 15.2602 16.7593 15.2602 16.4643V15.1978H20.3467ZM16.5318 20.2637V34.195C16.5318 34.8928 17.1028 35.4615 17.8035 35.4615C18.5041 35.4615 19.0751 34.8928 19.0751 34.195V20.2637C19.0751 19.5659 18.5041 18.9972 17.8035 18.9972C17.1028 18.9972 16.5318 19.5659 16.5318 20.2637ZM21.5738 19.8217C22.4017 18.8984 22.89 17.713 22.89 16.4643V15.1978H25.4332V16.4643C25.4332 19.1948 23.92 21.6758 21.6183 23.0158V20.2637C21.6183 20.1567 21.6043 20.053 21.5902 19.9492L21.5902 19.9492L21.5902 19.9491L21.5901 19.9491L21.5901 19.9491L21.5901 19.949L21.5901 19.949L21.5901 19.949L21.5901 19.9489C21.5844 19.9066 21.5786 19.8643 21.5738 19.8217ZM15.9965 37.5208C15.5489 37.983 15.2602 38.5897 15.2602 39.2609V40.5274H20.3467V39.2609C20.3467 38.591 20.0581 37.983 19.6104 37.5208C19.07 37.8133 18.4609 37.9944 17.8035 37.9944C17.146 37.9944 16.5369 37.8133 15.9965 37.5208ZM21.3322 35.6274C21.5141 35.1854 21.6183 34.7029 21.6183 34.195V32.7094C23.92 34.0506 25.4332 36.5317 25.4332 39.2609V40.5274H22.89V39.2609C22.89 37.8602 22.3012 36.5621 21.3322 35.6274ZM21.6183 25.8236V29.9016C25.3964 31.4379 27.9765 35.1385 27.9765 39.2622V40.5287H50.8658V39.2622C50.8658 35.1398 53.446 31.4379 57.224 29.9029V25.8236C53.446 24.2873 50.8658 20.5854 50.8658 16.4643V15.1978H27.9765V16.4643C27.9765 20.5867 25.3964 24.2873 21.6183 25.8236ZM59.7672 34.195V20.2637C59.7672 19.5659 60.3382 18.9972 61.0389 18.9972C61.7395 18.9972 62.3105 19.5659 62.3105 20.2637V34.195C62.3105 34.8928 61.7395 35.4615 61.0389 35.4615C60.3382 35.4615 59.7672 34.8928 59.7672 34.195ZM63.4194 17.3179C63.5185 17.0456 63.5821 16.7593 63.5821 16.4643V15.1978H58.4956V16.4643C58.4956 16.7593 58.5592 17.0456 58.6584 17.3179C59.3133 16.7923 60.1347 16.4643 61.0389 16.4643C61.943 16.4643 62.7645 16.7923 63.4194 17.3179ZM57.2685 19.8217C57.264 19.8588 57.2589 19.8956 57.2539 19.9324C57.2389 20.0414 57.224 20.1501 57.224 20.2637V23.0158C54.9223 21.6746 53.4091 19.1935 53.4091 16.4643V15.1978H55.9524V16.4643C55.9524 17.7143 56.4407 18.8984 57.2685 19.8217ZM57.224 32.7094C54.9223 34.0494 53.4091 36.5304 53.4091 39.2609V40.5274H55.9524V39.2609C55.9524 37.8602 56.5411 36.5633 57.5101 35.6274C57.3283 35.1841 57.224 34.7016 57.224 34.195V32.7094ZM58.4956 39.2609C58.4956 38.5897 58.7843 37.983 59.2319 37.5208C59.7723 37.8133 60.3814 37.9944 61.0389 37.9944C61.6963 37.9944 62.3054 37.8133 62.8459 37.5208C63.2935 37.983 63.5821 38.591 63.5821 39.2609V40.5274H58.4956V39.2609ZM64.8538 23.0158C67.1554 21.6758 68.6686 19.1948 68.6686 16.4643V13.9313C68.6686 10.1724 65.9143 7.0429 62.3105 6.43753V9.02495C64.5015 9.5898 66.1254 11.5756 66.1254 13.9313V16.4643C66.1254 17.7143 65.6371 18.8984 64.8092 19.823C64.8139 19.8644 64.8196 19.9058 64.8252 19.9472L64.8253 19.9476L64.8253 19.9479L64.8254 19.9483C64.8395 20.052 64.8538 20.1563 64.8538 20.2637V23.0158ZM2.5439 7.59889C2.5439 4.80503 4.8252 2.53296 7.63042 2.53296H71.2119C74.0171 2.53296 76.2984 4.80503 76.2984 7.59889C76.2984 10.3927 74.0171 12.6648 71.2119 12.6648H71.1242C70.4947 7.67488 66.2169 3.79944 61.0389 3.79944H59.7672V11.3983H61.0389C61.9761 11.3983 62.7874 11.9113 63.2286 12.6648H15.6137C16.055 11.9113 16.8663 11.3983 17.8035 11.3983H19.0751V3.79944H17.8035C12.6254 3.79944 8.34762 7.67488 7.71816 12.6648H7.63042C4.8252 12.6648 2.5439 10.3927 2.5439 7.59889ZM10.1737 15.1978V16.4643C10.1737 19.1948 11.6869 21.6758 13.9886 23.0158V20.2637C13.9886 20.1512 14.0034 20.0429 14.0184 19.9342C14.0235 19.8972 14.0286 19.8602 14.0331 19.823C13.2052 18.8984 12.7169 17.713 12.7169 16.4643V13.9313C12.7169 11.5744 14.3408 9.58853 16.5318 9.02495V6.43753C12.928 7.0429 10.1737 10.1724 10.1737 13.9313V15.1978ZM10.1737 39.2609C10.1737 36.5304 11.6869 34.0494 13.9886 32.7094V34.195C13.9886 34.7029 14.0928 35.1841 14.2747 35.6274C13.3057 36.5633 12.7169 37.8602 12.7169 39.2609V41.7939C12.7169 44.1495 14.3408 46.1354 16.5318 46.7002V49.2877C12.928 48.6823 10.1737 45.5528 10.1737 41.7939V40.5274V39.2609ZM75.0268 75.9889C75.7275 75.9889 76.2984 75.4202 76.2984 74.7224V44.3269C76.2984 43.629 75.7275 43.0604 75.0268 43.0604H71.1242C70.4947 48.0503 66.2169 51.9257 61.0389 51.9257H59.7672V44.3269H61.0389C61.9761 44.3269 62.7874 43.8139 63.2286 43.0604H15.6137C16.055 43.8139 16.8663 44.3269 17.8035 44.3269H19.0751V51.9257H17.8035C12.6254 51.9257 8.34762 48.0503 7.71816 43.0604H3.81553C3.11486 43.0604 2.5439 43.629 2.5439 44.3269V74.7224C2.5439 75.4202 3.11486 75.9889 3.81553 75.9889H75.0268Z" fill="#232C38"/>
<path d="M41.4799 50.083V50.087H41.4839L41.4799 50.083Z" fill="#232C38"/>
<path fill-rule="evenodd" clip-rule="evenodd" d="M41.6912 50.3059C41.7381 50.3574 41.7849 50.4088 41.8334 50.4592C46.9874 47.4652 53.0988 47.7552 56.7586 51.3001C58.7003 53.1834 59.7698 55.8075 59.7698 58.6888C59.7698 62.3565 58.076 66.1027 55.1232 68.965C52.079 71.9172 48.1941 73.4407 44.5674 73.4407C41.7063 73.4407 39.0053 72.4921 37 70.5494L37.0051 70.543C36.5244 70.6 36.0412 70.638 35.549 70.638C31.9224 70.638 28.0388 69.1144 24.9932 66.1623C22.0405 63.2987 20.3467 59.5525 20.3467 55.8848C20.3467 53.0035 21.4162 50.3794 23.3579 48.4974C27.9027 44.09 36.0323 44.8018 41.4799 50.083C41.554 50.1552 41.6226 50.2306 41.6912 50.3059ZM39.706 51.8979C37.1449 49.4143 33.9023 48.1212 30.9305 48.1212C29.1807 48.1212 27.539 48.5886 26.1682 49.5042L42.145 64.9933C43.0835 63.704 43.5819 62.1285 43.5819 60.3592C43.5819 57.3703 42.1691 54.2865 39.706 51.8979ZM26.7659 64.3487C24.3015 61.9601 22.89 58.8762 22.89 55.8873C22.89 54.118 23.3872 52.5425 24.3269 51.2545L40.31 66.7499C36.6159 69.2246 30.8364 68.295 26.7659 64.3487ZM40.0849 69.7363C43.7867 71.9805 49.3793 70.9952 53.3468 67.1501C55.8112 64.7615 57.224 61.6777 57.2227 58.6888C57.2227 56.9195 56.7242 55.3427 55.7858 54.0547L53.8542 55.9278L52.079 54.113L53.9419 52.307C51.1494 50.4478 47.1132 50.506 43.4993 52.4551C45.0952 54.7386 46.0031 57.3324 46.0998 59.9096L50.5619 55.5833L52.3371 57.3995L45.483 64.0447C44.9756 65.448 44.1834 66.7119 43.1152 67.7479C42.2276 68.6078 41.1989 69.2626 40.0849 69.7363Z" fill="#232C38"/>
<rect x="24.1616" y="5.06592" width="25.4326" height="2.53296" fill="#232C38"/>
<rect x="52.1375" y="5.06592" width="2.54326" height="2.53296" fill="#232C38"/>
</svg>
