<svg width="80" height="81" viewBox="0 0 80 81" fill="none" xmlns="http://www.w3.org/2000/svg">
<rect x="2" y="49.0884" width="41.2203" height="26.2177" fill="#C7A17A"/>
<path d="M43.2204 56.9537H78V28.1143H39.356V35.9796H43.2204V56.9537Z" fill="#C7A17A"/>
<path fill-rule="evenodd" clip-rule="evenodd" d="M80 9.06912V3.88677C80 1.74386 78.2632 0 76.129 0H40C37.8658 0 36.129 1.74386 36.129 3.88677V9.06912C36.129 10.2131 36.6335 11.2328 37.4194 11.9453V33.6853H3.87097C1.73677 33.6853 0 35.4292 0 37.5721V73.8486C0 77.4205 2.89419 80.3265 6.45161 80.3265H37.4194C37.8606 80.3265 38.2929 80.2812 38.7097 80.1957V80.3265H76.129C78.2632 80.3265 80 78.5827 80 76.4398V71.2574C80 70.1134 79.4955 69.0938 78.7097 68.3812V11.9453C79.4955 11.2328 80 10.2131 80 9.06912ZM77.4194 3.88677V9.06912C77.4194 9.78299 76.84 10.3647 76.129 10.3647H70.9677V2.59118H76.129C76.84 2.59118 77.4194 3.1729 77.4194 3.88677ZM47.7419 2.59118V10.3647H52.9032V2.59118H47.7419ZM55.4839 2.59118H60.6452V10.3647H55.4839V2.59118ZM68.3871 2.59118H63.2258V10.3647H68.3871V2.59118ZM38.7097 3.88677C38.7097 3.1729 39.289 2.59118 40 2.59118H45.1613V10.3647H40C39.289 10.3647 38.7097 9.78299 38.7097 9.06912V3.88677ZM2.58065 73.8486C2.58065 75.9915 4.31742 77.7354 6.45161 77.7354H37.4194C39.5536 77.7354 41.2903 75.9915 41.2903 73.8486V44.05H38.7097V41.4589H41.2903V37.5721C41.2903 36.8582 40.711 36.2765 40 36.2765H3.87097C3.16 36.2765 2.58065 36.8582 2.58065 37.5721V41.4589H36.129V44.05H2.58065V73.8486ZM77.4194 76.4398C77.4194 77.1549 76.84 77.7354 76.129 77.7354H42.5471C43.3665 76.6496 43.871 75.3126 43.871 73.8486V69.9618H76.129C76.84 69.9618 77.4194 70.5422 77.4194 71.2574V76.4398ZM43.871 67.3706H76.129V12.9559H40V33.6853C42.1342 33.6853 43.871 35.4292 43.871 37.5721V67.3706Z" fill="#151D28"/>
<path fill-rule="evenodd" clip-rule="evenodd" d="M55.52 51.8067C58.5006 51.8067 61.7871 50.4347 64.3961 47.8163C68.8839 43.3102 69.6942 36.7934 66.2026 33.2876C62.7109 29.7817 56.2206 30.5953 51.7342 35.1014C47.2477 39.6074 46.4374 46.1243 49.9277 49.6288C51.3884 51.0967 53.3742 51.8067 55.52 51.8067ZM62.5716 45.9843C59.529 49.038 55.4361 50.046 52.7948 48.582L65.16 36.1664C66.6155 38.8197 65.6142 42.928 62.5716 45.9843ZM60.5935 33.6723C58.3006 33.6723 55.6761 34.806 53.5574 36.9333C50.5148 39.9896 49.5135 44.098 50.969 46.75L63.3187 34.3499C62.5174 33.9068 61.5922 33.6723 60.5935 33.6723Z" fill="#151D28"/>
<path fill-rule="evenodd" clip-rule="evenodd" d="M15.6039 54.5352C11.1161 59.0413 10.3058 65.5581 13.7974 69.0639C15.2581 70.5318 17.2439 71.2418 19.3897 71.2418C22.3703 71.2418 25.6568 69.8698 28.2658 67.2514C32.7536 62.7454 33.5639 56.2285 30.0723 52.7227C26.582 49.2142 20.0916 50.0291 15.6039 54.5352ZM17.4284 56.3672C19.5471 54.2411 22.1729 53.1075 24.4645 53.1075C25.4632 53.1075 26.3884 53.342 27.1897 53.7851L14.84 66.1851C13.3845 63.5318 14.3858 59.4235 17.4284 56.3672ZM16.6658 68.0158C19.3071 69.4798 23.4 68.4719 26.4426 65.4182C29.4852 62.3619 30.4865 58.2535 29.031 55.6002L16.6658 68.0158Z" fill="#151D28"/>
</svg>
