<svg width="80" height="81" viewBox="0 0 80 81" fill="none" xmlns="http://www.w3.org/2000/svg">
<path d="M21.9661 32.6752C21.9661 28.9162 24.8502 25.8679 28.4068 25.8679H1.35593V36.7596H23.2542L23.2671 36.7378C22.4607 35.601 21.9661 34.2055 21.9661 32.6752Z" fill="#C7A17A"/>
<rect x="50.3051" y="24.5064" width="28.339" height="13.6147" fill="#C7A17A"/>
<path fill-rule="evenodd" clip-rule="evenodd" d="M56.3432 9.06912C52.9084 3.62895 46.8748 0 40 0C33.1252 0 27.0903 3.62895 23.6568 9.06912H0V19.4338V45.3456V80.3265H23.2258H56.7742H80V45.3456V19.4338V9.06912H56.3432ZM40 2.59118C49.249 2.59118 56.7742 10.1471 56.7742 19.4338V22.025H77.4193V42.7544H56.7742H47.2826C49.92 40.6154 51.6129 37.3467 51.6129 33.6853V22.025H28.3871V24.6162C24.1174 24.6162 20.6452 28.1026 20.6452 32.3897C20.6452 36.6768 24.1174 40.1633 28.3871 40.1633H30.351C31.0052 41.1427 31.8052 42.0147 32.7174 42.7544H23.2258H2.58065V22.025H23.2258V19.4338C23.2258 10.1471 30.751 2.59118 40 2.59118ZM25.8065 45.3456V50.528H54.1936V45.3456H25.8065ZM30.9677 33.6853V24.6162H49.0323V33.6853C49.0323 38.6863 44.9806 42.7544 40 42.7544C35.0194 42.7544 30.9677 38.6863 30.9677 33.6853ZM28.3871 37.5721H29.0645C28.6335 36.3542 28.3871 35.0496 28.3871 33.6853V27.2074C25.5406 27.2074 23.2258 29.5317 23.2258 32.3897C23.2258 35.2478 25.5406 37.5721 28.3871 37.5721ZM2.58065 16.8427H15.4839V14.2515H2.58065V11.6603H22.2723C21.9084 12.4947 21.6103 13.3614 21.3652 14.2515H18.0645V16.8427H20.8374C20.7239 17.6926 20.6452 18.5528 20.6452 19.4338H2.58065V16.8427ZM2.58065 45.3456V77.7354H23.2258V45.3456H2.58065ZM25.8065 53.1192H38.7097V77.7354H25.8065V53.1192ZM41.2903 53.1192V77.7354H54.1935V53.1192H41.2903ZM77.4194 77.7354H56.7742V45.3456H77.4194V77.7354ZM59.1626 16.8427C59.2761 17.6926 59.3548 18.5528 59.3548 19.4338H77.4194V16.8427H64.5161V14.2515H77.4194V11.6603H57.7277C58.0916 12.4947 58.3884 13.3614 58.6348 14.2515H61.9355V16.8427H59.1626Z" fill="#232C38"/>
<path d="M41.2903 19.4339H43.871V17.1484C43.871 15.8554 44.5871 14.6933 45.7381 14.1155C47.7703 13.0945 49.0323 11.0449 49.0323 8.76468V6.47797H46.4516V8.76339C46.4516 10.0564 45.7355 11.2185 44.5845 11.7964C42.5523 12.8173 41.2903 14.8669 41.2903 17.1471V19.4339Z" fill="#232C38"/>
<path d="M36.129 17.1484C36.129 15.8554 36.8452 14.6933 37.9961 14.1155C40.0284 13.0945 41.2903 11.0449 41.2903 8.76468V6.47797H38.7097V8.76339C38.7097 10.0564 37.9935 11.2185 36.8426 11.7964C34.8103 12.8173 33.5484 14.8669 33.5484 17.1471V19.4339H36.129V17.1484Z" fill="#232C38"/>
<rect x="33.5484" y="60.8927" width="2.58065" height="5.18236" fill="#232C38"/>
<rect x="43.871" y="60.8927" width="2.58065" height="5.18236" fill="#232C38"/>
</svg>
