<svg width="75" height="81" viewBox="0 0 75 81" fill="none" xmlns="http://www.w3.org/2000/svg">
<path d="M9 18.0735V18.8303C9 24.6163 12.0033 30.0057 16.9719 33.1347H42.0281C46.9967 30.0057 50 24.6163 50 18.8303V18.0735H9Z" fill="#C7A17A"/>
<path fill-rule="evenodd" clip-rule="evenodd" d="M67.2574 0C71.5271 0 74.9994 3.48643 74.9994 7.77354C74.9994 11.1511 72.8406 14.0235 69.8381 15.0936V80.3252H5.32193C2.47548 80.3252 0.160645 78.0009 0.160645 75.1429C0.160645 72.2848 2.47548 69.9605 5.32193 69.9605H15.7877C14.6445 68.8385 13.8032 67.4134 13.3787 65.8172L9.73355 64.5994C7.09484 63.7158 5.32193 61.2451 5.32193 58.4531V50.3764C5.32193 47.5844 7.09355 45.115 9.73226 44.2314L13.0639 43.1172V42.7544C13.0639 42.1831 13.1942 41.6441 13.4161 41.1557C11.7077 40.5092 10.4832 38.8625 10.4832 36.9243C10.4832 34.863 11.8677 33.1386 13.7452 32.5893C10.0394 29.0678 7.90258 24.1653 7.90258 18.9195V15.5471C3.6329 15.5471 0.160645 12.0606 0.160645 7.77354C0.160645 3.48643 3.6329 0 7.90258 0H24.6768H37.58H54.3542H67.2574ZM38.8703 3.88677C38.8703 3.1729 38.291 2.59118 37.58 2.59118H24.6768C23.9658 2.59118 23.3865 3.1729 23.3865 3.88677C23.3865 4.60064 23.9658 5.18236 24.6768 5.18236H37.58C38.291 5.18236 38.8703 4.60064 38.8703 3.88677ZM2.74129 7.77354C2.74129 4.91547 5.05613 2.59118 7.90258 2.59118H21.0432C20.8987 2.99799 20.8058 3.43072 20.8058 3.88677C20.8058 6.02967 22.5426 7.77354 24.6768 7.77354H37.58C39.7142 7.77354 41.451 6.02967 41.451 3.88677C41.451 3.43072 41.3581 2.99799 41.2136 2.59118H54.3542C57.2006 2.59118 59.5155 4.91547 59.5155 7.77354C59.5155 10.6316 57.2006 12.9559 54.3542 12.9559H7.90258C5.05613 12.9559 2.74129 10.6316 2.74129 7.77354ZM54.3542 33.6853H59.5155V28.503H54.3542V33.6853ZM54.3542 44.05H59.5155V49.2324H54.3542V44.05ZM54.3542 41.4589H59.5155V36.2765H54.3542V41.4589ZM51.7735 25.9118V33.6853V44.05V51.8236H59.5155V69.9618H43.8884C45.5658 68.3138 46.6123 66.0206 46.6123 63.4839V42.7544C46.6123 42.1831 46.4819 41.6441 46.26 41.1557C47.9684 40.5079 49.1929 38.8625 49.1929 36.9243C49.1929 34.8643 47.8084 33.1399 45.931 32.5893C49.6368 29.0665 51.7735 24.164 51.7735 18.9195V15.5471H54.3542H59.5155V25.9118H51.7735ZM49.1929 18.9195V15.5471H10.4832V18.9195C10.4832 19.978 10.6148 21.0106 10.8097 22.025H16.9348C20.4923 22.025 23.3865 24.931 23.3865 28.503V32.3897H42.0355C46.5168 29.3619 49.1929 24.3597 49.1929 18.9195ZM11.5181 24.6162H16.9348C19.069 24.6162 20.8058 26.3601 20.8058 28.503V32.3897H17.6406C14.7929 30.4645 12.6806 27.745 11.5181 24.6162ZM44.6768 34.9809H14.9994C13.9323 34.9809 13.0639 35.8528 13.0639 36.9243C13.0639 37.9957 13.9323 38.8677 14.9994 38.8677H44.6768C45.7439 38.8677 46.6123 37.9957 46.6123 36.9243C46.6123 35.8528 45.7439 34.9809 44.6768 34.9809ZM7.90258 58.4531V50.3764C7.90258 48.7012 8.96581 47.219 10.549 46.6879L13.0639 45.847V62.9838L10.549 62.1429C8.96581 61.6105 7.90258 60.1283 7.90258 58.4531ZM15.6445 42.7544V63.4839C15.6445 67.0558 18.5387 69.9618 22.0961 69.9618H37.58C41.1374 69.9618 44.0316 67.0558 44.0316 63.4839V42.7544C44.0316 42.0393 43.4523 41.4589 42.7413 41.4589H16.9348C16.2239 41.4589 15.6445 42.0393 15.6445 42.7544ZM67.2574 77.7354H5.32193C3.89871 77.7354 2.74129 76.5732 2.74129 75.1442C2.74129 73.7151 3.89871 72.553 5.32193 72.553H22.0961H37.58H62.0961V51.8236V44.05V33.6853V25.9118V15.5471H67.2574V77.7354ZM60.109 12.9559H67.2574C70.1039 12.9559 72.4187 10.6316 72.4187 7.77354C72.4187 4.91547 70.1039 2.59118 67.2574 2.59118H60.109C61.34 3.96839 62.0961 5.78092 62.0961 7.77354C62.0961 9.76615 61.34 11.5787 60.109 12.9559Z" fill="#151D28"/>
<rect x="38.8703" y="44.05" width="2.58065" height="2.59118" fill="#333333"/>
<rect x="18.2252" y="44.05" width="18.0645" height="2.59118" fill="#333333"/>
</svg>
